<?xml version="1.0" standalone="no"?>
<!DOCTYPE svg PUBLIC "-//W3C//DTD SVG 20010904//EN"
 "http://www.w3.org/TR/2001/REC-SVG-20010904/DTD/svg10.dtd">
<svg version="1.0" xmlns="http://www.w3.org/2000/svg"
 width="640.000000pt" height="640.000000pt" viewBox="0 0 640.000000 640.000000"
 preserveAspectRatio="xMidYMid meet">

<g transform="translate(0.000000,640.000000) scale(0.100000,-0.100000)"
fill="#000000" stroke="none">
<path d="M3617 6380 c-41 -33 -91 -148 -131 -305 -33 -132 -43 -182 -84 -432
-9 -57 -22 -105 -28 -107 -8 -3 -15 31 -23 107 -7 62 -16 137 -21 167 -5 30
-14 114 -20 185 -6 72 -15 146 -20 165 -6 19 -10 54 -10 78 0 37 -4 44 -27 53
-30 11 -58 6 -161 -28 -126 -42 -144 -77 -103 -194 38 -108 79 -215 94 -249
18 -40 113 -276 134 -334 7 -21 20 -51 28 -67 8 -15 15 -30 15 -32 0 -2 -64
-7 -142 -10 -277 -13 -654 -58 -723 -87 -11 -4 -76 -27 -145 -50 -132 -44
-144 -49 -255 -100 -38 -18 -92 -41 -120 -52 -27 -11 -74 -33 -104 -50 -40
-23 -69 -32 -120 -35 l-66 -5 -68 81 c-60 72 -71 81 -101 81 -70 0 -109 -30
-183 -140 -67 -99 -146 -181 -223 -231 -14 -9 -38 -28 -55 -43 -16 -14 -33
-26 -36 -26 -4 0 -22 -15 -41 -32 -18 -18 -79 -76 -135 -130 -56 -53 -121
-125 -144 -160 -24 -34 -55 -79 -70 -98 -23 -30 -77 -129 -150 -271 -10 -20
-27 -67 -37 -105 -11 -38 -30 -96 -42 -129 -26 -71 -46 -173 -59 -305 -6 -52
-15 -129 -21 -171 -15 -107 15 -341 64 -491 19 -59 37 -122 41 -139 4 -18 23
-56 41 -85 41 -64 42 -79 6 -102 -16 -9 -57 -42 -92 -72 -157 -136 -198 -197
-249 -371 -45 -154 -41 -264 13 -422 32 -94 65 -144 172 -255 154 -162 290
-254 476 -319 57 -20 109 -40 116 -46 18 -14 15 -38 -14 -93 -23 -44 -94 -245
-94 -266 0 -4 -9 -27 -19 -51 -11 -23 -27 -69 -35 -103 -9 -33 -23 -80 -32
-105 -8 -24 -22 -71 -29 -104 -8 -33 -23 -100 -35 -149 -11 -50 -20 -103 -20
-118 0 -27 2 -28 50 -28 48 0 50 1 50 28 0 45 38 240 54 275 8 18 17 48 20 68
8 45 82 291 95 316 5 10 20 45 33 78 13 33 38 84 56 114 17 30 32 61 32 69 0
12 10 13 50 8 27 -4 66 -13 87 -20 83 -29 272 -39 650 -33 212 3 389 10 418
16 28 6 138 27 245 47 205 37 299 64 417 120 39 19 76 34 81 34 6 0 12 4 14 8
2 5 29 21 61 36 66 31 266 220 319 302 39 60 68 145 68 201 0 23 5 43 12 45 8
3 14 51 19 142 5 76 10 140 12 143 11 10 123 24 257 33 80 4 191 18 247 29 55
12 125 21 155 22 37 1 46 3 29 8 -21 6 -15 9 40 24 121 34 174 51 203 65 15 7
40 16 55 18 43 8 111 36 111 46 0 6 13 8 29 6 20 -3 28 0 27 10 -1 8 18 20 47
30 26 8 52 24 58 34 5 10 14 18 20 18 6 0 26 7 45 16 19 9 37 15 39 12 6 -5
-21 -303 -34 -377 -15 -87 -18 -438 -4 -491 7 -25 17 -67 24 -94 7 -32 14 -44
19 -36 6 9 12 0 19 -27 6 -22 18 -46 26 -53 8 -7 15 -23 15 -36 0 -16 4 -22
14 -18 8 3 19 -3 26 -15 6 -12 17 -21 25 -21 7 0 15 -6 17 -12 3 -8 10 -4 17
11 11 20 10 30 -12 75 -58 117 -57 115 -78 224 -15 77 -4 401 20 583 28 214
45 549 38 759 -6 178 -43 447 -86 624 -11 45 -22 98 -26 119 -6 39 -60 168
-74 177 -5 3 -24 30 -44 60 -19 30 -49 69 -67 85 -52 48 -90 106 -90 136 0 23
8 33 43 53 23 13 68 29 101 35 32 6 65 16 73 23 21 17 49 75 79 164 32 94 56
124 98 124 39 0 149 -33 181 -54 22 -14 27 -14 54 2 17 9 31 20 31 24 0 13 58
38 89 38 35 0 61 -30 61 -71 0 -15 16 -119 35 -233 31 -183 38 -213 67 -260
111 -183 145 -236 176 -280 19 -28 64 -106 100 -175 36 -70 70 -133 77 -141 7
-8 16 -26 20 -40 4 -14 18 -38 30 -55 12 -16 39 -70 60 -120 21 -49 58 -133
83 -185 54 -114 59 -127 67 -165 3 -16 21 -66 39 -110 19 -44 45 -116 59 -160
72 -227 102 -602 63 -785 -10 -47 -21 -101 -25 -121 -4 -20 -31 -84 -59 -143
-29 -58 -52 -110 -52 -115 0 -14 -112 -164 -139 -187 -175 -146 -276 -197
-419 -210 -40 -4 -77 -13 -83 -20 -21 -26 -2 -42 58 -49 71 -8 103 -22 103
-47 0 -10 4 -26 9 -36 18 -34 40 -118 51 -202 6 -46 13 -87 16 -91 12 -19 34
-238 34 -336 l0 -113 69 0 c53 0 70 4 75 15 3 9 21 22 40 30 18 8 52 32 75 53
23 22 54 45 69 53 29 15 34 18 72 50 14 12 41 29 60 40 19 10 55 37 80 59 55
50 76 57 101 34 29 -26 26 -132 -6 -230 -34 -104 -34 -106 16 -102 l42 3 20
70 c15 51 22 107 24 205 l4 135 -33 15 c-60 27 -106 19 -177 -29 -35 -24 -71
-50 -80 -58 -9 -8 -39 -29 -68 -46 -28 -18 -69 -44 -90 -58 -63 -43 -182 -104
-189 -97 -8 8 -21 101 -34 245 -6 61 -22 167 -36 235 -14 67 -29 141 -34 163
-4 22 -6 43 -3 48 3 4 30 19 60 32 57 26 75 40 206 159 81 73 178 201 223 294
46 94 107 319 121 442 12 109 0 380 -22 475 -30 137 -76 307 -102 380 -14 39
-36 103 -49 144 -13 40 -60 147 -104 238 -44 90 -88 183 -97 206 -9 23 -25 54
-35 69 -10 14 -18 29 -18 33 0 3 -14 26 -30 51 -17 24 -63 106 -102 181 -39
76 -88 164 -109 197 -22 32 -39 60 -39 63 0 2 -17 30 -39 61 -54 80 -81 168
-117 372 -9 52 -20 108 -25 124 -5 16 -9 38 -9 50 0 40 -22 99 -45 122 -32 32
-131 34 -180 4 l-33 -20 -15 24 c-9 13 -27 35 -39 49 -13 14 -38 44 -57 66
-91 112 -174 183 -439 378 -17 13 -62 38 -100 55 -37 17 -114 54 -172 82 -137
67 -292 119 -445 147 -72 13 -126 36 -133 57 -2 6 7 22 20 35 24 24 53 35 198
77 122 35 204 61 225 71 11 5 52 16 90 24 98 22 198 49 213 58 19 13 14 61
-13 123 -14 31 -25 60 -25 65 0 5 -15 33 -34 62 -19 29 -41 69 -49 89 -8 19
-20 39 -26 42 -15 10 -108 -35 -167 -80 -27 -21 -80 -59 -119 -86 -151 -105
-133 -90 -309 -262 -60 -58 -112 -106 -115 -106 -3 0 -13 4 -20 9 -13 8 -11
18 12 64 14 30 47 86 73 123 26 38 58 89 72 113 13 25 57 88 97 140 135 180
186 261 179 285 -13 43 -115 106 -247 153 -104 37 -118 38 -150 13z m-117
-1122 c47 -9 137 -23 200 -32 189 -28 344 -64 398 -92 15 -8 34 -14 42 -14 9
0 20 -4 25 -9 6 -5 46 -23 90 -41 142 -56 329 -167 415 -246 21 -20 53 -47 72
-60 52 -39 200 -194 195 -207 -2 -6 -26 -10 -64 -8 -40 1 -72 -3 -91 -13 -43
-22 -90 -114 -104 -201 -14 -89 -27 -111 -75 -119 -47 -9 -123 -36 -123 -45 0
-4 -15 -12 -34 -19 -51 -19 -71 -47 -71 -101 0 -53 40 -121 120 -205 26 -28
51 -59 56 -70 5 -12 29 -49 54 -84 24 -35 52 -89 61 -120 9 -31 20 -66 24 -77
12 -32 58 -369 70 -505 20 -239 8 -427 -29 -469 -9 -10 -47 -36 -86 -56 -38
-21 -79 -44 -90 -51 -11 -8 -27 -14 -36 -14 -9 0 -27 -8 -40 -19 -13 -10 -40
-22 -59 -26 -19 -4 -39 -11 -45 -15 -5 -4 -21 -11 -35 -15 -14 -4 -52 -20 -85
-35 -33 -15 -100 -37 -150 -48 -49 -11 -126 -29 -170 -40 -44 -12 -105 -25
-135 -31 -30 -5 -80 -14 -110 -20 -30 -5 -111 -11 -180 -13 -117 -3 -125 -2
-128 17 -7 34 19 158 44 212 14 29 27 66 31 83 3 17 10 33 14 36 5 3 9 13 9
23 0 10 20 49 45 87 25 37 45 72 45 78 0 5 6 17 14 25 13 15 41 101 53 164 10
51 -25 153 -66 193 -45 45 -63 52 -178 69 -52 8 -119 19 -151 24 -31 5 -95 15
-142 21 -47 6 -110 20 -140 31 -30 11 -79 26 -107 34 -67 19 -143 58 -173 90
-13 14 -28 25 -33 25 -8 0 -124 76 -137 90 -3 3 -29 23 -57 43 -64 47 -159 67
-222 49 -21 -7 -46 -12 -55 -12 -15 0 -61 -30 -103 -65 -6 -5 -24 -20 -40 -32
-16 -12 -44 -36 -61 -53 -18 -16 -34 -30 -37 -30 -3 0 -15 -9 -27 -20 -51 -48
-191 -71 -342 -56 -93 8 -109 8 -144 -8 -63 -28 -156 -136 -210 -242 -30 -58
-135 -169 -154 -162 -18 7 -78 121 -119 228 -44 111 -72 307 -65 445 6 128 43
328 82 441 39 112 110 249 205 394 64 99 112 155 226 271 80 81 157 153 171
160 15 8 33 20 40 27 8 7 28 20 45 28 18 9 43 27 57 39 24 22 45 34 150 86 25
12 55 29 67 39 12 9 72 38 135 64 163 69 174 73 273 101 50 15 111 33 138 40
26 8 96 21 155 30 59 8 136 19 172 24 103 15 610 7 710 -11z m-2060 -207 c0
-4 20 -39 45 -75 25 -37 45 -71 45 -75 0 -5 -28 -32 -62 -61 -153 -131 -319
-318 -390 -440 -14 -25 -42 -69 -62 -98 -20 -30 -41 -72 -48 -95 -7 -23 -19
-50 -28 -59 -15 -16 -71 -152 -105 -253 -9 -27 -21 -79 -25 -115 -5 -36 -14
-89 -19 -119 -14 -68 -14 -333 -1 -426 22 -150 80 -302 150 -391 17 -20 30
-38 30 -39 0 -11 -83 -48 -162 -73 -51 -16 -118 -43 -148 -60 -30 -16 -81 -38
-113 -48 l-58 -18 -24 30 c-14 16 -27 38 -31 49 -3 11 -17 44 -31 74 -23 51
-34 95 -69 261 -35 167 -34 360 2 560 22 126 131 455 170 518 19 29 34 55 34
58 0 17 135 208 184 261 12 12 26 28 32 35 72 82 307 287 384 335 34 21 65 56
102 115 21 33 52 70 100 120 27 28 45 38 67 38 17 0 31 -4 31 -9z m930 -1628
c25 -9 66 -31 93 -49 26 -19 50 -34 53 -34 3 0 26 -18 51 -40 25 -22 52 -40
59 -40 8 0 14 -4 14 -10 0 -5 6 -10 13 -10 6 0 32 -14 55 -30 55 -37 118 -61
263 -98 125 -32 155 -37 337 -52 123 -10 146 -18 198 -66 25 -23 36 -92 23
-152 -11 -57 -60 -163 -105 -231 -37 -57 -123 -321 -145 -445 -11 -61 -20
-149 -20 -196 -1 -78 -7 -128 -40 -306 -7 -43 -24 -81 -55 -129 -24 -37 -44
-69 -44 -72 0 -11 -95 -108 -134 -138 -89 -67 -146 -105 -161 -105 -8 0 -39
-13 -68 -29 -45 -26 -161 -64 -237 -78 -14 -3 -54 -13 -90 -23 -36 -10 -99
-24 -140 -31 -41 -6 -97 -15 -125 -20 -27 -4 -80 -8 -117 -8 -38 -1 -110 -8
-160 -17 -75 -13 -137 -15 -318 -11 -398 10 -559 42 -895 179 -137 55 -242
123 -340 217 -123 120 -170 183 -212 287 -25 63 -27 81 -27 194 0 108 4 135
25 195 40 112 140 229 309 362 94 74 170 117 257 147 37 13 97 37 133 54 36
17 92 40 125 53 33 12 67 27 75 33 8 7 34 21 58 31 25 11 68 46 105 85 78 84
86 94 121 162 34 65 119 159 159 176 21 9 45 9 100 1 141 -22 321 11 377 69
40 42 195 161 227 173 70 29 124 30 203 2z"/>
<path d="M1420 4121 c-79 -13 -124 -30 -180 -69 -61 -42 -125 -125 -141 -186
-14 -53 -6 -213 12 -246 35 -62 73 -110 90 -115 11 -4 19 -10 19 -14 0 -17
149 -81 222 -96 237 -47 433 23 513 182 27 51 30 68 29 143 0 74 -4 95 -30
150 -32 68 -89 133 -153 176 -85 56 -273 93 -381 75z m243 -98 c74 -22 96 -34
146 -80 72 -65 101 -130 101 -226 -1 -114 -45 -174 -166 -222 -55 -22 -90 -29
-176 -33 -95 -4 -115 -2 -170 18 -189 68 -269 178 -240 331 22 118 120 209
255 235 88 16 136 12 250 -23z"/>
<path d="M1471 3803 c-25 -17 -28 -65 -5 -87 35 -36 94 -9 94 43 0 45 -52 71
-89 44z"/>
<path d="M3360 4108 c-51 -22 -86 -36 -110 -43 -65 -19 -135 -76 -205 -165
-61 -79 -76 -121 -82 -227 -5 -86 -4 -96 22 -150 63 -128 227 -239 400 -269
104 -19 256 -14 349 11 99 26 209 77 251 116 104 97 155 303 105 430 -38 96
-92 160 -178 211 -130 78 -182 92 -367 95 -102 2 -169 -2 -185 -9z m365 -93
c148 -38 263 -135 294 -250 14 -52 14 -163 0 -206 -25 -75 -167 -175 -295
-208 -86 -22 -236 -32 -319 -20 -148 21 -298 111 -350 210 -33 63 -27 171 14
262 24 53 124 148 189 181 128 63 293 74 467 31z"/>
<path d="M3474 3715 c-58 -58 30 -136 93 -83 22 18 16 75 -9 92 -32 22 -55 20
-84 -9z"/>
<path d="M1838 3079 c-15 -8 -18 -25 -18 -94 0 -74 2 -86 20 -95 17 -9 21 -6
35 26 8 19 16 66 17 102 3 61 1 67 -17 69 -11 2 -28 -2 -37 -8z"/>
<path d="M2349 3031 c-30 -4 -63 -19 -96 -44 -28 -20 -54 -37 -58 -37 -13 0
-34 -34 -35 -56 0 -46 56 -41 200 17 52 22 95 39 97 39 9 0 1 48 -9 62 -17 21
-44 26 -99 19z"/>
<path d="M4675 2330 l-40 -7 43 -2 c23 0 42 4 42 9 0 6 -1 9 -2 9 -2 -1 -21
-5 -43 -9z"/>
</g>
</svg>
